<!-- Silent mode activity – bell slash
     source: design/reference/ios17-dynamic-island/Dynamic Island/Dynamic Island-9.svg (cluster 1)
     generated by tools/extract_icons.py — do not edit by hand -->
<svg xmlns="http://www.w3.org/2000/svg" width="24" height="24" viewBox="0 0 24 24" fill="none">
  <path d="M11.72 2.5C13.046 2.5 13.985 3.43 14.328 4.612C16.729 5.479 17.641 7.862 17.713 11.328C17.776 12.366 17.939 13.647 18.534 14.27C19.32 15.073 20.231 15.886 20.231 16.788C20.231 17.05 20.159 17.276 20.006 17.447L7.865 5.289C8.217 5 8.633 4.775 9.111 4.612C9.454 3.43 10.384 2.5 11.72 2.5ZM3.398 4.332C3.136 4.071 3.136 3.61 3.398 3.348C3.677 3.078 4.12 3.078 4.39 3.348L20.601 19.541C20.872 19.821 20.863 20.254 20.601 20.525C20.33 20.805 19.888 20.805 19.617 20.525L3.398 4.332ZM4.562 17.881C3.713 17.881 3.199 17.447 3.199 16.788C3.199 15.886 4.12 15.073 4.905 14.27C5.501 13.647 5.654 12.366 5.726 11.328C5.744 10.263 5.844 9.315 6.042 8.457L15.456 17.881L4.562 17.881ZM11.72 21.5C10.185 21.5 9.066 20.381 8.949 19.117L14.491 19.117C14.364 20.381 13.245 21.5 11.72 21.5Z" fill="#FFFFFF"/>
</svg>
