<!-- Minimal sheet – locked
     source: design/reference/ios17-dynamic-island/Dynamic Island/Minimal.svg (cluster 14)
     generated by tools/extract_icons.py — do not edit by hand -->
<svg xmlns="http://www.w3.org/2000/svg" width="24" height="24" viewBox="0 0 24 24" fill="none">
  <path d="M7.852 20.5C6.729 20.5 6.18 19.942 6.18 18.722L6.18 12.326C6.18 11.298 6.711 10.732 7.565 10.592L7.565 8.371C7.565 5.086 9.717 3.5 12 3.5C14.283 3.5 16.435 5.086 16.435 8.371L16.435 10.566C17.367 10.663 17.82 11.229 17.82 12.326L17.82 18.722C17.82 19.942 17.271 20.5 16.148 20.5L7.852 20.5ZM8.967 8.188L8.967 10.558L15.033 10.558L15.033 8.188C15.033 6.001 13.63 4.842 12 4.842C10.37 4.842 8.967 6.001 8.967 8.188Z" fill="#FFFFFF"/>
</svg>
